<?xml version="1.0" encoding="UTF-8"?>
<svg version="1.1" xmlns="http://www.w3.org/2000/svg" width="1258" height="1207">
<path d="M0 0 C3.9504138 0.00784117 7.90081171 0.00048596 11.85122681 -0.0041585 C18.47301075 -0.00954764 25.09469287 -0.0026084 31.71646118 0.01186323 C39.26579204 0.02817625 46.81487941 0.02288279 54.36420441 0.00638402 C60.96071639 -0.00743025 67.55715706 -0.00905543 74.15367889 -0.00129998 C78.04321754 0.00326944 81.93264364 0.00431233 85.82217407 -0.00590944 C101.92007548 -0.0423684 117.87149575 0.34717133 133.91177368 1.78725386 C134.59696579 1.84869243 135.2821579 1.910131 135.9881134 1.97343135 C207.41124626 8.5239607 275.76687864 29.31640434 339.78677368 61.40297651 C340.74519165 61.88089643 341.70360962 62.35881636 342.69107056 62.8512187 C372.45271959 77.77502033 400.49261242 96.00921633 426.78677368 116.40297651 C427.3795813 116.85833784 427.97238892 117.31369917 428.5831604 117.78285933 C440.84400508 127.20298012 452.54826127 137.21012276 463.87271118 147.73500776 C466.0365348 149.71609561 468.22072961 151.635713 470.44692993 153.54360151 C475.30701902 157.78123595 479.85799079 162.32373298 484.40518188 166.89101362 C485.84702589 168.33822036 487.29414484 169.77999677 488.74185181 171.22133589 C493.97018506 176.44592023 498.98353685 181.78582411 503.78677368 187.40297651 C505.24122885 189.01066024 506.69898263 190.61537366 508.16177368 192.21547651 C512.89253461 197.46478628 517.3567442 202.89921597 521.78677368 208.40297651 C522.71215776 209.53611348 523.63795761 210.668911 524.56411743 211.80141401 C579.81692658 279.68816555 619.00648891 362.21251338 646.00942993 627.37953901 C639.90403965 685.00964321 625.03361503 741.32394528 601.78677368 794.40297651 C601.52100525 795.01016523 601.25523682 795.61735395 600.98141479 796.24294233 C581.22781168 841.20583416 555.58017262 883.15995309 524.78677368 921.40297651 C524.05200806 922.32078901 523.31724243 923.23860151 522.56021118 924.18422651 C508.72898299 941.28465409 493.86238166 957.38508045 478.34927368 972.96547651 C477.61619995 973.70322309 476.88312622 974.44096968 476.12783813 975.20107222 C472.07717431 979.23977496 467.93041308 983.10311706 463.5975647 986.83730268 C461.17466292 988.93222909 458.82686378 991.10466622 456.47427368 993.27797651 C451.07184052 998.19804957 445.49762611 1002.84652665 439.78677368 1007.40297651 C439.27839966 1007.81096479 438.77002563 1008.21895308 438.24624634 1008.63930464 C404.56878795 1035.63072128 368.3196151 1058.03077937 329.78677368 1077.40297651 C328.89490356 1077.85624311 328.00303345 1078.30950972 327.08413696 1078.77651167 C274.9093949 1105.17317904 216.70980898 1121.22259187 158.97427368 1129.15297651 C158.24605408 1129.2542082 157.51783447 1129.35543989 156.76754761 1129.45973921 C132.77721302 1132.75379643 108.8732315 1133.72131494 84.6880219 1133.70455909 C81.54850956 1133.70346698 78.4090164 1133.70842879 75.2695083 1133.71316451 C67.83408585 1133.72415545 60.39871394 1133.72475803 52.96328735 1133.71865034 C45.40222563 1133.71263286 37.84135104 1133.72488921 30.28032118 1133.74622041 C23.692492 1133.76409294 17.10472093 1133.76979795 10.51686853 1133.76658267 C6.62494858 1133.76480828 2.73316173 1133.76700265 -1.15873528 1133.78129721 C-96.12530957 1134.10008073 -188.45156494 1109.19936134 -332.21322632 1025.40297651 C-332.85501831 1024.9339189 -333.4968103 1024.46486128 -334.15805054 1023.98158979 C-342.42521351 1017.92060229 -350.44621753 1011.66798628 -358.20932007 1004.97328901 C-360.96017314 1002.61950316 -363.75903108 1000.34883266 -366.58822632 998.09047651 C-372.46671732 993.30565825 -377.95434818 988.1379659 -383.45932007 982.93422651 C-385.78164743 980.7393042 -388.1209717 978.56933965 -390.49838257 976.43422651 C-398.92539244 968.85069743 -406.68407613 960.72696816 -414.37094116 952.3980937 C-416.02696402 950.60469074 -417.6906381 948.81886794 -419.35775757 947.03578901 C-424.36364469 941.66036272 -429.16777431 936.16230414 -433.77182007 930.43813276 C-435.60328369 928.16125719 -437.4489229 925.90075559 -439.31088257 923.64907026 C-445.81096828 915.76715218 -452.00452273 907.76980318 -457.8309021 899.37856245 C-459.37736768 897.16838946 -460.94863917 894.97702129 -462.52182007 892.78578901 C-470.18350909 882.06112016 -477.22101094 871.10925939 -483.85336304 859.72133589 C-485.09971849 857.59649004 -486.37007882 855.48925311 -487.65463257 853.38735151 C-531.06718158 781.94162707 -556.32160643 698.54497474 -563.21322632 615.40297651 C-563.2994223 614.37446074 -563.38561829 613.34594496 -563.47442627 612.28626204 C-564.15448398 603.5631475 -564.39198757 594.88439224 -564.41635132 586.13735151 C-564.4191787 585.43138083 -564.42200607 584.72541014 -564.42491913 583.9980464 C-564.43979352 580.24353388 -564.44909041 576.48905845 -564.45346069 572.73451948 C-564.45779246 569.71583826 -564.47149229 566.69745142 -564.49447632 563.67885542 C-564.70696865 535.13716667 -563.02955939 506.92720799 -558.46322632 478.71547651 C-558.27430817 477.51824965 -558.27430817 477.51824965 -558.08157349 476.29683638 C-555.52404646 460.14905657 -552.21236878 444.25892653 -548.21322632 428.40297651 C-547.91722534 427.221873 -547.62122437 426.04076948 -547.31625366 424.82387495 C-530.20532431 357.54492095 -500.41176813 292.3612485 -459.21322632 236.40297651 C-458.70130737 235.7070439 -458.18938843 235.01111128 -457.66195679 234.29408979 C-451.68191406 226.19299198 -445.5795049 218.20554966 -439.21322632 210.40297651 C-438.13814819 209.06686323 -438.13814819 209.06686323 -437.04135132 207.70375776 C-432.68906882 202.32343612 -428.21857716 197.09273768 -423.54916382 191.98500776 C-421.65295618 189.88903243 -419.79213034 187.7717422 -417.93978882 185.63735151 C-414.13140563 181.27521654 -410.18965041 177.04923956 -406.21322632 172.84047651 C-405.20389038 171.76636518 -405.20389038 171.76636518 -404.17416382 170.67055464 C-398.2187534 164.35299089 -392.21808821 158.20803209 -385.63510132 152.54360151 C-383.11759831 150.3184537 -380.66682282 148.03345147 -378.21786499 145.73354292 C-371.75650406 139.66890938 -365.13549825 133.94079406 -358.21322632 128.40297651 C-357.00987493 127.41003431 -355.80815617 126.41511142 -354.60775757 125.41860151 C-280.20263763 63.84871507 -188.1973619 23.520312 -93.21322632 7.40297651 C-92.09013062 7.21010054 -90.96703491 7.01722456 -89.80990601 6.81850386 C-59.98749393 1.79259927 -30.18964493 -0.07933908 0 0 Z " fill="#474846" transform="translate(588.2132263183594,36.597023487091064)"/>
<path d="M0 0 C1.04620514 0.00087616 2.09241028 0.00175232 3.1703186 0.00265503 C76.52173521 0.20420248 146.55431688 27.20678017 201.6875 75.375 C202.5125 76.08785156 203.3375 76.80070312 204.1875 77.53515625 C215.6227973 87.59746555 226.30672792 98.37023574 235.6875 110.375 C236.63804295 111.53857244 237.59134331 112.69989584 238.546875 113.859375 C270.92482408 153.3183805 292.49957839 202.07913531 300.6875 252.375 C300.83171387 253.24705078 300.97592773 254.11910156 301.12451172 255.01757812 C301.55257739 257.63508655 301.9677174 260.25418147 302.375 262.875 C302.49456055 263.6390918 302.61412109 264.40318359 302.73730469 265.19042969 C304.47827068 276.96339681 304.88298434 288.737043 304.875 300.625 C304.87459213 301.66131561 304.87459213 301.66131561 304.87417603 302.71856689 C304.83942427 322.10114908 303.56639073 341.35750367 299.6875 360.375 C299.5023584 361.3026416 299.3172168 362.2302832 299.12646484 363.18603516 C293.63727323 390.16111735 284.92726506 415.72478692 272.6875 440.375 C272.07720947 441.62796875 272.07720947 441.62796875 271.45458984 442.90625 C252.05400172 482.54920371 221.1258567 519.08986457 185.6875 545.375 C184.84155273 546.00631836 184.84155273 546.00631836 183.97851562 546.65039062 C176.95828125 551.86153381 169.74755411 556.65494482 162.30371094 561.23632812 C156.46990389 564.84347056 150.75956077 568.61869197 145.0625 572.4375 C134.59693577 579.44874955 124.08939903 586.39371615 113.5625 593.3125 C112.75692657 593.84205292 111.95135315 594.37160583 111.12136841 594.91720581 C106.97326889 597.64394044 102.82485284 600.37019291 98.67626953 603.09619141 C93.79211523 606.30582613 88.90947718 609.51776116 84.02734375 612.73046875 C83.23886047 613.24933151 82.4503772 613.76819427 81.63800049 614.30278015 C80.05100157 615.34712199 78.46400612 616.39146911 76.87701416 617.43582153 C63.26373937 626.39394709 49.64656161 635.3461191 36.0269165 644.29455566 C19.8419634 654.92864663 3.66363407 665.57279593 -12.51416016 676.21777344 C-17.28404503 679.35632448 -22.05411079 682.49460053 -26.82421875 685.6328125 C-27.60822556 686.14862381 -28.39223236 686.66443512 -29.19999695 687.19587708 C-33.13758203 689.78644485 -37.07533758 692.37675282 -41.01342773 694.96655273 C-48.34533136 699.78860655 -55.6756336 704.61303887 -63.00018311 709.44625854 C-66.40931465 711.69560941 -69.81937109 713.94355597 -73.22949219 716.19140625 C-74.83379251 717.24946685 -76.43765409 718.3081931 -78.04101562 719.36767578 C-86.00226274 724.62814969 -93.98383989 729.85692165 -102.0390625 734.97265625 C-103.00662979 735.59629311 -103.00662979 735.59629311 -103.9937439 736.23252869 C-111.20784019 740.77394735 -117.84832579 742.55604756 -126.3125 741.375 C-132.02095425 739.02446001 -134.75289172 734.78955598 -137.3125 729.375 C-140.77050724 718.13077824 -137.06965989 705.86505161 -134.65625 694.76171875 C-134.27075556 692.94438985 -133.88638119 691.12682305 -133.50305176 689.30903625 C-132.49086548 684.52303307 -131.46447941 679.74018948 -130.43469238 674.95794678 C-129.42000847 670.23599365 -128.4171315 665.51154108 -127.4140625 660.78710938 C-126.22578997 655.19212993 -125.0367479 649.59732894 -123.84130859 644.00387573 C-120.72946598 629.4305135 -117.71697313 614.83797015 -114.76159668 600.23210144 C-114.60306213 599.45191587 -114.44452759 598.67173031 -114.28118896 597.86790276 C-113.98684092 596.41903449 -113.69401354 594.9698561 -113.40301514 593.52031136 C-112.83591566 590.73245812 -112.21347503 588.07792509 -111.3125 585.375 C-112.01761719 585.26285156 -112.72273437 585.15070312 -113.44921875 585.03515625 C-119.06443356 583.740516 -124.14764284 580.87743595 -129.3125 578.375 C-129.95219727 578.0661084 -130.59189453 577.7572168 -131.25097656 577.43896484 C-169.25910423 558.99854106 -205.91413106 532.6731155 -232.12329102 499.14892578 C-234.23197496 496.47703251 -236.39952063 493.86561044 -238.58203125 491.25390625 C-243.10328293 485.73194346 -247.18458453 480.00929653 -251.125 474.0625 C-251.81078125 473.02923584 -252.4965625 471.99597168 -253.203125 470.93139648 C-259.8746314 460.73855843 -265.77791082 450.22099214 -271.3125 439.375 C-271.68810059 438.64829102 -272.06370117 437.92158203 -272.45068359 437.17285156 C-285.75799205 411.19512379 -294.58777489 382.11011159 -299.3125 353.375 C-299.44930679 352.56178787 -299.58611359 351.74857574 -299.72706604 350.91072083 C-302.10834038 336.46545747 -302.81239693 322.27447518 -302.75854492 307.64501953 C-302.75004042 304.14165221 -302.77893125 300.63992657 -302.81054688 297.13671875 C-302.85590138 282.19561057 -301.46710979 267.9125135 -298.82092285 253.21185303 C-298.16721903 249.56437405 -297.56795283 245.90876256 -296.97053528 242.25170898 C-292.32799534 215.21001196 -282.12512084 188.33325452 -269.25390625 164.16064453 C-268.32043534 162.39005163 -267.42560417 160.5992634 -266.53125 158.80859375 C-255.53453508 137.00415149 -240.37279512 117.63954367 -224.3125 99.375 C-223.6309082 98.59648682 -223.6309082 98.59648682 -222.93554688 97.80224609 C-218.27592013 92.49926146 -213.56064054 87.5095774 -208.15234375 82.96875 C-206.38207813 81.4352715 -204.79583741 79.82558619 -203.1875 78.125 C-198.28030044 73.13973136 -192.6351347 69.00769486 -187.09716797 64.75830078 C-185.46615735 63.49410021 -183.85867882 62.19968863 -182.25390625 60.90234375 C-157.74389604 41.30071009 -128.66447514 27.07775777 -99.3125 16.375 C-98.54228516 16.0872168 -97.77207031 15.79943359 -96.97851562 15.50292969 C-85.57096314 11.30151049 -73.72125958 8.74948707 -61.875 6.125 C-60.7227594 5.86538483 -60.7227594 5.86538483 -59.54724121 5.6005249 C-39.76707141 1.17847263 -20.23564201 -0.04175208 0 0 Z " fill="#FEFEFE" transform="translate(607.3125,304.625)"/>
<path d="M0 0 C3.9504138 0.00784117 7.90081171 0.00048596 11.85122681 -0.0041585 C18.47301075 -0.00954764 25.09469287 -0.0026084 31.71646118 0.01186323 C39.26579204 0.02817625 46.81487941 0.02288279 54.36420441 0.00638402 C60.96071639 -0.00743025 67.55715706 -0.00905543 74.15367889 -0.00129998 C78.04321754 0.00326944 81.93264364 0.00431233 85.82217407 -0.00590944 C101.92007548 -0.0423684 117.87149575 0.34717133 133.91177368 1.78725386 C134.59696579 1.84869243 135.2821579 1.910131 135.9881134 1.97343135 C207.41124626 8.5239607 275.76687864 29.31640434 339.78677368 61.40297651 C340.74519165 61.88089643 341.70360962 62.35881636 342.69107056 62.8512187 C372.45271959 77.77502033 400.49261242 96.00921633 426.78677368 116.40297651 C427.3795813 116.85833784 427.97238892 117.31369917 428.5831604 117.78285933 C440.84400508 127.20298012 452.54826127 137.21012276 463.87271118 147.73500776 C466.0365348 149.71609561 468.22072961 151.635713 470.44692993 153.54360151 C475.30701902 157.78123595 479.85799079 162.32373298 484.40518188 166.89101362 C485.84702589 168.33822036 487.29414484 169.77999677 488.74185181 171.22133589 C493.97018506 176.44592023 498.98353685 181.78582411 503.78677368 187.40297651 C505.24122885 189.01066024 506.69898263 190.61537366 508.16177368 192.21547651 C512.89253461 197.46478628 517.3567442 202.89921597 521.78677368 208.40297651 C522.71215776 209.53611348 523.63795761 210.668911 524.56411743 211.80141401 C579.81692658 279.68816555 619.00648891 362.21251338 646.00942993 627.37953901 C639.90403965 685.00964321 625.03361503 741.32394528 601.78677368 794.40297651 C601.52100525 795.01016523 601.25523682 795.61735395 600.98141479 796.24294233 C581.22781168 841.20583416 555.58017262 883.15995309 524.78677368 921.40297651 C524.05200806 922.32078901 523.31724243 923.23860151 522.56021118 924.18422651 C508.72898299 941.28465409 493.86238166 957.38508045 478.34927368 972.96547651 C477.61619995 973.70322309 476.88312622 974.44096968 476.12783813 975.20107222 C472.07717431 979.23977496 467.93041308 983.10311706 463.5975647 986.83730268 C461.17466292 988.93222909 458.82686378 991.10466622 456.47427368 993.27797651 C451.07184052 998.19804957 445.49762611 1002.84652665 439.78677368 1007.40297651 C439.27839966 1007.81096479 438.77002563 1008.21895308 438.24624634 1008.63930464 C404.56878795 1035.63072128 368.3196151 1058.03077937 329.78677368 1077.40297651 C328.89490356 1077.85624311 328.00303345 1078.30950972 327.08413696 1078.77651167 C274.9093949 1105.17317904 216.70980898 1121.22259187 158.97427368 1129.15297651 C158.24605408 1129.2542082 157.51783447 1129.35543989 156.76754761 1129.45973921 C132.77721302 1132.75379643 108.8732315 1133.72131494 84.6880219 1133.70455909 C81.54850956 1133.70346698 78.4090164 1133.70842879 75.2695083 1133.71316451 C67.83408585 1133.72415545 60.39871394 1133.72475803 52.96328735 1133.71865034 C45.40222563 1133.71263286 37.84135104 1133.72488921 30.28032118 1133.74622041 C23.692492 1133.76409294 17.10472093 1133.76979795 10.51686853 1133.76658267 C6.62494858 1133.76480828 2.73316173 1133.76700265 -1.15873528 1133.78129721 C-96.12530957 1134.10008073 -188.45156494 1109.19936134 -332.21322632 1025.40297651 C-332.85501831 1024.9339189 -333.4968103 1024.46486128 -334.15805054 1023.98158979 C-342.42521351 1017.92060229 -350.44621753 1011.66798628 -358.20932007 1004.97328901 C-360.96017314 1002.61950316 -363.75903108 1000.34883266 -366.58822632 998.09047651 C-372.46671732 993.30565825 -377.95434818 988.1379659 -383.45932007 982.93422651 C-385.78164743 980.7393042 -388.1209717 978.56933965 -390.49838257 976.43422651 C-398.92539244 968.85069743 -406.68407613 960.72696816 -414.37094116 952.3980937 C-416.02696402 950.60469074 -417.6906381 948.81886794 -419.35775757 947.03578901 C-424.36364469 941.66036272 -429.16777431 936.16230414 -433.77182007 930.43813276 C-435.60328369 928.16125719 -437.4489229 925.90075559 -439.31088257 923.64907026 C-445.81096828 915.76715218 -452.00452273 907.76980318 -457.8309021 899.37856245 C-459.37736768 897.16838946 -460.94863917 894.97702129 -462.52182007 892.78578901 C-470.18350909 882.06112016 -477.22101094 871.10925939 -483.85336304 859.72133589 C-485.09971849 857.59649004 -486.37007882 855.48925311 -487.65463257 853.38735151 C-531.06718158 781.94162707 -556.32160643 698.54497474 -563.21322632 615.40297651 C-563.2994223 614.37446074 -563.38561829 613.34594496 -563.47442627 612.28626204 C-564.15448398 603.5631475 -564.39198757 594.88439224 -564.41635132 586.13735151 C-564.4191787 585.43138083 -564.42200607 584.72541014 -564.42491913 583.9980464 C-564.43979352 580.24353388 -564.44909041 576.48905845 -564.45346069 572.73451948 C-564.45779246 569.71583826 -564.47149229 566.69745142 -564.49447632 563.67885542 C-564.70696865 535.13716667 -563.02955939 506.92720799 -558.46322632 478.71547651 C-558.27430817 477.51824965 -558.27430817 477.51824965 -558.08157349 476.29683638 C-555.52404646 460.14905657 -552.21236878 444.25892653 -548.21322632 428.40297651 C-547.91722534 427.221873 -547.62122437 426.04076948 -547.31625366 424.82387495 C-530.20532431 357.54492095 -500.41176813 292.3612485 -459.21322632 236.40297651 C-458.70130737 235.7070439 -458.18938843 235.01111128 -457.66195679 234.29408979 C-451.68191406 226.19299198 -445.5795049 218.20554966 -439.21322632 210.40297651 C-438.13814819 209.06686323 -438.13814819 209.06686323 -437.04135132 207.70375776 C-432.68906882 202.32343612 -428.21857716 197.09273768 -423.54916382 191.98500776 C-421.65295618 189.88903243 -419.79213034 187.7717422 -417.93978882 185.63735151 C-414.13140563 181.27521654 -410.18965041 177.04923956 -406.21322632 172.84047651 C-405.20389038 171.76636518 -405.20389038 171.76636518 -404.17416382 170.67055464 C-398.2187534 164.35299089 -392.21808821 158.20803209 -385.63510132 152.54360151 C-383.11759831 150.3184537 -380.66682282 148.03345147 -378.21786499 145.73354292 C-371.75650406 139.66890938 -365.13549825 133.94079406 -358.21322632 128.40297651 C-357.00987493 127.41003431 -355.80815617 126.41511142 -354.60775757 125.41860151 C-280.20263763 63.84871507 -188.1973619 23.520312 -93.21322632 7.40297651 C-92.09013062 7.21010054 -90.96703491 7.01722456 -89.80990601 6.81850386 C-59.98749393 1.79259927 -30.18964493 -0.07933908 0 0 Z M-55.21322632 40.40297651 C-55.85608582 40.46849714 -56.49894531 40.53401777 -57.1612854 40.60152388 C-74.7306262 42.39736522 -92.05075031 44.73644734 -109.27670288 48.72768354 C-112.35202026 49.43489404 -115.43377397 50.10645246 -118.51791382 50.77407026 C-155.53337913 58.89648995 -192.45932901 70.83301698 -226.15560913 88.35073042 C-228.35597067 89.47597464 -230.57409663 90.55791902 -232.79916382 91.63344526 C-258.67958043 104.19731059 -282.94716639 119.53209466 -306.21322632 136.40297651 C-306.89804077 136.89942671 -307.58285522 137.3958769 -308.28842163 137.90737104 C-316.82936243 144.13167792 -325.0136043 150.64466978 -332.97103882 157.59828901 C-335.88275881 160.13851963 -338.8773287 162.55874923 -341.90072632 164.96547651 C-346.73659735 168.88395437 -351.09629771 173.1590038 -355.41244507 177.62953901 C-357.57520745 179.77118656 -359.74609659 181.74780953 -362.05307007 183.72328901 C-366.35256621 187.44644926 -370.22616552 191.48348563 -374.08822632 195.65297651 C-375.13248779 196.77276899 -375.13248779 196.77276899 -376.19784546 197.91518354 C-378.20743514 200.07369214 -380.21102444 202.23761681 -382.21322632 204.40297651 C-382.72772339 204.95630659 -383.24222046 205.50963667 -383.77230835 206.07973433 C-389.86721051 212.6375132 -395.62910448 219.40645535 -401.21322632 226.40297651 C-401.62653198 226.91666792 -402.03983765 227.43035933 -402.46566772 227.95961714 C-422.89755954 253.37845811 -440.47362161 280.55023698 -456.01303101 309.20375776 C-457.18020202 311.34246332 -458.37086417 313.46662053 -459.56478882 315.59047651 C-486.94261914 365.05915147 -503.51076066 422.44944845 -510.93460083 478.30690718 C-511.12299306 479.7241615 -511.31402331 481.14106726 -511.50747681 482.5576396 C-525.17482648 582.9591304 -506.19666841 683.72382404 -443.27963257 810.24282026 C-442.74781372 811.13879927 -442.21599487 812.03477827 -441.6680603 812.95790815 C-440.78678455 814.43902524 -439.90190275 815.91801577 -439.01034546 817.39296675 C-436.67405195 821.33179185 -435.04025967 825.27428388 -433.52572632 829.59047651 C-419.13403246 869.18391483 -397.21516515 907.32698079 -371.21322632 940.40297651 C-370.35839425 941.51183887 -369.50426762 942.62124529 -368.65072632 943.73110151 C-363.97520301 949.78049516 -359.17990635 955.71495274 -354.21322632 961.52797651 C-353.7758313 962.04086226 -353.33843628 962.553748 -352.88778687 963.08217573 C-344.40600738 972.91246541 -335.4855638 982.3173509 -326.30648804 991.49501753 C-324.70868739 993.0950217 -323.11911081 994.70291266 -321.52963257 996.31117964 C-315.80467221 1002.06661126 -309.97917274 1007.43988915 -303.60726929 1012.48256636 C-301.26947472 1014.35785618 -299.04800628 1016.31687634 -296.83822632 1018.34047651 C-273.86258949 1038.92535043 -246.93350773 1055.24467258 -220.21322632 1070.40297651 C-219.45574097 1070.83352339 -218.69825562 1071.26407026 -217.91781616 1071.70766401 C-196.43508234 1083.80089599 -173.31284804 1092.92437009 -150.21322632 1101.40297651 C-149.50375854 1101.66658979 -148.79429077 1101.93020308 -148.06332397 1102.20180464 C-136.14659119 1106.58971254 -123.75723808 1109.48062172 -111.45883179 1112.57729292 C-108.6012488 1113.30426341 -105.75194887 1114.05497167 -102.90463257 1114.82094526 C-89.80508381 1118.30847042 -76.6352641 1120.55271708 -63.21322632 1122.40297651 C-61.95091187 1122.58779585 -60.68859741 1122.77261518 -59.38803101 1122.96303511 C-19.66860877 1128.72101191 22.02671733 1128.96737445 61.78677368 1123.40297651 C62.45178894 1123.31105024 63.1168042 1123.21912397 63.80197144 1123.12441206 C89.49115484 1119.56036908 115.00925665 1114.84551658 139.84927368 1107.27797651 C145.876601 1105.51679007 151.86216175 1104.52431127 158.05874634 1103.61293745 C182.31639046 1099.98410496 206.09548899 1093.87518574 229.36245728 1086.19789839 C231.41140242 1085.52605897 233.46750329 1084.87610203 235.52505493 1084.23110151 C257.23695811 1077.31935379 278.25938689 1068.23965911 298.78677368 1058.40297651 C299.75502075 1057.94342573 300.72326782 1057.48387495 301.72085571 1057.01039839 C340.23238505 1038.64542436 376.09887797 1014.77375498 408.78677368 987.40297651 C409.39359985 986.89524702 410.00042603 986.38751753 410.62564087 985.86440229 C412.41371358 984.36244051 414.19561824 982.85357491 415.97427368 981.34047651 C416.47161011 980.91879194 416.96894653 980.49710737 417.48135376 980.06264448 C427.90668278 971.10392112 437.79416463 961.5630015 447.49136353 951.82875776 C449.17853326 950.13616304 450.87107564 948.44907054 452.56411743 946.76235151 C458.18576038 941.1444553 463.65255937 935.47597942 468.78677368 929.40297651 C469.73556223 928.31942598 470.68603457 927.23734707 471.63833618 926.15688276 C479.44043267 917.21216744 486.67724803 907.903479 493.78677368 898.40297651 C494.36749634 897.63260054 494.94821899 896.86222456 495.54653931 896.06850386 C503.78001475 885.13777785 511.58399375 874.04040919 518.78677368 862.40297651 C519.50147827 861.24958784 519.50147827 861.24958784 520.23062134 860.07289839 C556.37024481 801.43978274 581.39768644 738.00586103 593.12808228 670.12221479 C593.58508049 667.54181788 594.05792637 664.97029522 594.55874634 662.39858198 C596.21488549 653.88793071 597.51429535 645.40600688 598.41177368 636.77797651 C598.53294556 635.67969526 598.65411743 634.58141401 598.77896118 633.44985151 C600.1884391 620.36621949 600.94363077 607.38361969 600.95474243 594.22328901 C600.95797318 592.79863661 600.96133844 591.37398451 600.96482849 589.94933271 C600.97076435 586.97944578 600.9726744 584.00958769 600.97207642 581.03969526 C600.97199559 578.0497243 600.97887832 575.05990796 600.99258423 572.0699687 C601.07381611 554.08347109 600.71318342 536.31043573 598.78677368 518.40297651 C598.71143402 517.67296934 598.63609436 516.94296217 598.55847168 516.19083357 C595.23773761 484.08808453 588.53070487 451.18662044 578.78677368 420.40297651 C578.43776001 419.2930937 578.08874634 418.18321089 577.72915649 417.03969526 C568.19753488 386.98401457 555.89814572 358.56239209 541.78677368 330.40297651 C541.30321411 329.43327925 540.81965454 328.46358198 540.32144165 327.46449995 C524.26387282 295.44671777 503.79166978 264.3591239 480.28677368 237.30141401 C477.94881077 234.59083826 475.70613506 231.8260086 473.47427368 229.02797651 C468.17165653 222.51764584 462.402104 216.46444485 456.63491821 210.36879683 C454.78460596 208.40067076 452.95306977 206.4166847 451.12661743 204.42641401 C445.44065854 198.24103878 439.75366945 192.23028318 433.40786743 186.70766401 C430.77505776 184.39267489 428.21900842 182.01214606 425.66592407 179.6102519 C419.25287996 173.58331769 412.6772241 167.88359223 405.78677368 162.40297651 C404.65822826 161.48355774 403.5306783 160.56291616 402.40396118 159.64125776 C361.41063142 126.24809466 314.46880912 98.06684306 265.01089478 79.25820112 C262.62529674 78.34088499 260.25478416 77.39020907 257.88442993 76.43422651 C243.9148191 70.83157103 229.83666808 65.85173121 215.26773071 62.06557417 C212.56353042 61.34335417 209.877228 60.56961569 207.18911743 59.78969526 C181.32374733 52.39098671 154.52955769 47.33751763 127.78677368 44.40297651 C126.47483032 44.25868208 126.47483032 44.25868208 125.13638306 44.11147261 C106.36513313 42.09833387 87.64341672 41.30864006 68.7756958 41.01427412 C41.12830416 40.57214369 41.12830416 40.57214369 29.09927368 39.34047651 C1.35840298 36.60766754 -27.52417573 37.52232539 -55.21322632 40.40297651 Z " fill="#BABABA" transform="translate(588.2132263183594,36.597023487091064)"/>
<path d="M0 0 C0 0.66 0 1.32 0 2 C0.58523438 2.25394531 1.17046875 2.50789063 1.7734375 2.76953125 C10.77944733 7.74653668 16.60236126 19.52566246 22 28 C22.65742187 29.02867187 23.31484375 30.05734375 23.9921875 31.1171875 C26.03849422 34.38618372 28.02869434 37.68555084 30 41 C30.42474609 41.70737305 30.84949219 42.41474609 31.28710938 43.14355469 C64.77240334 99.180651 85.79118567 163.84602104 91 229 C91.08612549 230.02456299 91.17225098 231.04912598 91.26098633 232.10473633 C92.09188622 243.01001999 92.20041067 253.88027043 92.1875 264.8125 C92.18659363 266.23505096 92.18659363 266.23505096 92.18566895 267.68634033 C92.15946812 282.87866687 91.74600053 297.89329974 90 313 C89.87109375 314.134375 89.7421875 315.26875 89.609375 316.4375 C84.11644223 363.22914949 70.96398703 408.34676074 51 451 C50.56606934 451.92973633 50.13213867 452.85947266 49.68505859 453.81738281 C38.83611294 476.82090128 25.43280907 498.55434069 10.5 519.125 C9.93958008 519.89851807 9.37916016 520.67203613 8.80175781 521.46899414 C4.69128083 527.11348786 0.44406832 532.6135305 -4 538 C-4.69222656 538.86496094 -5.38445312 539.72992187 -6.09765625 540.62109375 C-10.95976492 546.66657279 -16.05118843 552.42926911 -21.328125 558.109375 C-23.67346094 560.64672674 -25.96639586 563.21983665 -28.25 565.8125 C-36.88366237 575.42619972 -46.07923776 584.71369284 -56 593 C-57.31871094 594.15242187 -57.31871094 594.15242187 -58.6640625 595.328125 C-127.17347036 654.94281933 -214.94929195 690.40462237 -305 699 C-305.99572021 699.09571289 -306.99144043 699.19142578 -308.01733398 699.29003906 C-319.43247054 700.2463706 -330.86420856 700.24356108 -342.3125 700.25 C-343.39447662 700.25067474 -344.47645325 700.25134949 -345.59121704 700.25204468 C-430.05421 700.16877931 -430.05421 700.16877931 -445.86425781 686.37329102 C-446.4264502 685.69351196 -446.4264502 685.69351196 -447 685 C-443.72559748 681.56137691 -440.49101469 678.80582756 -436.50390625 676.234375 C-435.40828369 675.52265137 -434.31266113 674.81092773 -433.18383789 674.07763672 C-432.59716339 673.7005658 -432.01048889 673.32349487 -431.40603638 672.93499756 C-429.50592349 671.71363347 -427.61069763 670.48499152 -425.71655273 669.25439453 C-423.66117561 667.91912932 -421.60551755 666.58431929 -419.54847717 665.25161743 C-411.98859549 660.35283771 -404.46508048 655.39920982 -396.94271851 650.44308472 C-392.92756875 647.79790952 -388.91094277 645.15497751 -384.89453125 642.51171875 C-384.08655594 641.9798848 -383.27858063 641.44805084 -382.44612122 640.90010071 C-376.55274991 637.02106794 -370.6575385 633.14484128 -364.76171875 629.26953125 C-362.23572007 627.6088686 -359.70975646 625.94815264 -357.18380737 624.28741455 C-355.59761292 623.24469621 -354.01129492 622.20216579 -352.42483521 621.15985107 C-350.9274325 620.17601728 -349.43047225 619.1915097 -347.93397522 618.20629883 C-346.47602352 617.24879393 -345.01554256 616.29512841 -343.55247498 615.34545898 C-339.76114468 612.87390785 -336.05867162 610.33119862 -332.41992188 607.63916016 C-322.46169983 600.38725743 -316.48054988 597.77710311 -304 598 C-298.99293481 597.44631182 -294.03271876 596.63006221 -289.0625 595.8125 C-288.06228821 595.64868835 -288.06228821 595.64868835 -287.04187012 595.48156738 C-224.88607785 585.21625982 -165.80384806 557.29564253 -119 515 C-118.05616455 514.14873535 -118.05616455 514.14873535 -117.09326172 513.28027344 C-109.28798609 506.20354174 -101.91046819 498.96438129 -95 491 C-93.96746094 489.89205078 -93.96746094 489.89205078 -92.9140625 488.76171875 C-75.99409231 470.5895486 -62.36690327 449.43596568 -50 428 C-49.60603027 427.32485352 -49.21206055 426.64970703 -48.80615234 425.95410156 C-22.85255988 381.05335625 -9.09140843 326.59727432 -8 275 C-7.97953613 274.33339355 -7.95907227 273.66678711 -7.93798828 272.97998047 C-6.993378 240.26211523 -11.56244321 207.55006783 -20 176 C-20.33572021 174.72431152 -20.33572021 174.72431152 -20.67822266 173.42285156 C-30.22560245 137.70039243 -46.71034442 104.09957809 -67.9375 73.9375 C-77.3316843 60.52696155 -80.42587266 48.19434876 -79 32 C-77.4908786 23.70840688 -74.71865667 17.16282417 -69 11 C-68.55479004 10.49936035 -68.10958008 9.9987207 -67.65087891 9.48291016 C-60.65496687 1.6706194 -54.37766426 -4.15315426 -44 -7 C-42.66195312 -7.37705078 -42.66195312 -7.37705078 -41.296875 -7.76171875 C-26.32148909 -11.19905148 -13.15365788 -6.94910228 0 0 Z " fill="#535252" transform="translate(965,347)"/>
<path d="M0 0 C1.46196304 -0.00058914 1.46196304 -0.00058914 2.95346069 -0.00119019 C14.52761253 0.00437175 25.96444151 0.2111881 37.48608398 1.40112305 C56.38146676 3.20733476 75.53224877 2.89672498 94.5 3.1875 C94.5 3.5175 94.5 3.8475 94.5 4.1875 C93.80542191 4.19114563 93.11084381 4.19479126 92.3952179 4.19854736 C43.80961838 4.43282375 43.80961838 4.43282375 -4.5 9.1875 C-5.68110352 9.3515332 -6.86220703 9.51556641 -8.07910156 9.68457031 C-21.91266599 11.6191417 -35.49032602 14.33911861 -49.06591797 17.61132812 C-51.24882279 18.12804381 -53.43472385 18.61212296 -55.62890625 19.078125 C-94.01184241 27.3537165 -132.81554916 41.84769723 -167.5 60.1875 C-168.50756348 60.71327637 -169.51512695 61.23905273 -170.55322266 61.78076172 C-186.25785445 69.98339611 -201.6111302 78.55881122 -216.5 88.1875 C-218.16289063 89.25871094 -218.16289063 89.25871094 -219.859375 90.3515625 C-222.76641451 92.26078034 -225.63860246 94.21053442 -228.5 96.1875 C-229.44987793 96.84202148 -229.44987793 96.84202148 -230.41894531 97.50976562 C-240.39180807 104.40078534 -250.07062406 111.57078431 -259.5 119.1875 C-260.43070313 119.93515625 -261.36140625 120.6828125 -262.3203125 121.453125 C-278.98089052 134.95645063 -294.69312047 149.29967567 -309.875 164.4375 C-310.39737244 164.9571936 -310.91974487 165.47688721 -311.45794678 166.0123291 C-317.35830023 171.8897294 -323.11340834 177.82898363 -328.5 184.1875 C-329.47280289 185.30569376 -330.44672894 186.42291157 -331.421875 187.5390625 C-351.18629757 210.35397582 -369.10978637 234.76788778 -384.46484375 260.765625 C-391.59364341 272.75186014 -391.59364341 272.75186014 -395.08984375 277.21875 C-396.56997216 279.28518966 -397.34125753 281.10988101 -398.1875 283.5 C-399.88620418 287.9243816 -401.97074737 292.04112461 -404.25 296.1875 C-408.41702445 303.835603 -411.9960346 311.67134255 -415.42285156 319.67529297 C-416.15368857 321.3798063 -416.89021214 323.08189048 -417.63183594 324.78173828 C-430.41959332 354.12117664 -440.28795442 384.02337659 -447.5 415.1875 C-447.79100586 416.43837402 -448.08201172 417.68924805 -448.38183594 418.97802734 C-454.61633049 446.25485892 -458.79267464 474.25177225 -460.5 502.1875 C-460.58459473 503.56059326 -460.58459473 503.56059326 -460.67089844 504.96142578 C-461.81778943 524.58411995 -461.88335295 544.23791562 -461.0625 563.875 C-461.02334473 564.81279297 -460.98418945 565.75058594 -460.94384766 566.71679688 C-460.7105436 571.60456157 -460.19608698 576.34125807 -459.5 581.1875 C-459.27359961 584.0149229 -459.09013136 586.84390068 -458.9050293 589.67431641 C-457.35874594 612.87030219 -453.55291269 635.51687754 -448.5 658.1875 C-448.1793286 659.67570396 -447.85898815 661.16397929 -447.5390625 662.65234375 C-440.67060276 693.89335077 -429.87186383 725.14853233 -416.5 754.1875 C-415.99243164 755.29512695 -415.48486328 756.40275391 -414.96191406 757.54394531 C-413.59326799 760.52655303 -412.22023362 763.50706797 -410.84326172 766.48583984 C-410.27972427 767.70656573 -409.71755567 768.92792444 -409.15673828 770.14990234 C-406.14655589 776.70723749 -403.12981792 783.15283386 -399.36523438 789.31591797 C-398.5 791.1875 -398.5 791.1875 -398.5 795.1875 C-397.84 795.1875 -397.18 795.1875 -396.5 795.1875 C-395.99210937 796.09371094 -395.48421875 796.99992188 -394.9609375 797.93359375 C-391.48680679 804.09447595 -387.97234033 810.13884875 -383.95678711 815.96801758 C-382.58017216 818.06535401 -381.37770311 820.18328433 -380.1953125 822.39453125 C-377.57936347 827.1448381 -374.64720018 831.60592624 -371.5625 836.0625 C-371.00038818 836.8776709 -370.43827637 837.6928418 -369.85913086 838.53271484 C-359.38644438 853.63273271 -348.35197408 868.14579287 -336.5 882.1875 C-335.50507346 883.37879362 -334.51027642 884.57019541 -333.515625 885.76171875 C-327.26830464 893.19309612 -320.72328064 900.30742779 -314.01806641 907.328125 C-311.17013213 910.31500028 -308.36339135 913.29249107 -305.75 916.48828125 C-303.89815231 918.70985547 -302.14550597 920.53252522 -299.9375 922.375 C-296.50726832 925.29871149 -293.18093584 928.31117664 -289.875 931.375 C-267.4210876 952.05886463 -243.17494736 970.67912778 -217.5 987.1875 C-216.69369141 987.70666992 -215.88738281 988.22583984 -215.05664062 988.76074219 C-194.7931611 1001.73094601 -173.70055567 1012.9185463 -151.8984375 1023.06835938 C-149.88474199 1024.00797463 -147.87800887 1024.95978162 -145.875 1025.921875 C-123.98958102 1036.30628299 -100.85023565 1044.77388154 -77.5 1051.1875 C-76.06962402 1051.58751221 -76.06962402 1051.58751221 -74.61035156 1051.99560547 C-41.60309108 1061.21686101 -8.66859261 1067.38117012 25.5 1070.1875 C26.49296585 1070.27156601 27.4859317 1070.35563202 28.50898743 1070.44224548 C37.39806628 1071.14472242 46.23859586 1071.35075735 55.15234375 1071.35546875 C56.62423227 1071.35869849 58.0961205 1071.3620637 59.56800842 1071.36555481 C62.63624817 1071.37149214 65.70446 1071.37340052 68.77270508 1071.37280273 C71.86651499 1071.37272182 74.96017574 1071.37961763 78.05395508 1071.39331055 C109.77811757 1071.57440893 109.77811757 1071.57440893 141.1953125 1067.5546875 C143.6646537 1067.16126704 146.00367453 1067.12531396 148.5 1067.1875 C144.61933624 1069.44178479 140.37205919 1070.3992768 136.0625 1071.5 C135.22050049 1071.7165625 134.37850098 1071.933125 133.51098633 1072.15625 C131.72907571 1072.61172406 129.94642232 1073.06430083 128.16308594 1073.51416016 C126.45411262 1073.9462603 124.74630899 1074.38302881 123.04003906 1074.82568359 C98.97582652 1081.05894919 74.22856493 1084.79280792 49.5 1087.1875 C48.54488525 1087.28248779 47.58977051 1087.37747559 46.60571289 1087.4753418 C34.0803675 1088.54706528 21.49969975 1088.47462119 8.9375 1088.5 C7.6978952 1088.50261841 6.45829041 1088.50523682 5.18112183 1088.50793457 C-14.67729885 1088.51241328 -34.11021255 1087.57237168 -53.76269531 1084.72558594 C-57.13777961 1084.23965141 -60.51480993 1083.80402429 -63.8984375 1083.3828125 C-139.56063974 1073.31388615 -214.39760794 1039.52298288 -274.5 993.1875 C-275.04333984 992.77032715 -275.58667969 992.3531543 -276.14648438 991.92333984 C-282.7678331 986.82897833 -289.27295425 981.61472343 -295.625 976.1875 C-296.13788574 975.75010498 -296.65077148 975.31270996 -297.17919922 974.86206055 C-307.0094889 966.38028107 -316.41437439 957.45983748 -325.59204102 948.28076172 C-327.19204519 946.68296107 -328.79993615 945.09338449 -330.40820312 943.50390625 C-336.16363475 937.77894589 -341.53691263 931.95344642 -346.57958984 925.58154297 C-348.45487967 923.24374841 -350.41389983 921.02227996 -352.4375 918.8125 C-357.4661751 913.19978586 -361.99917353 907.22401284 -366.5 901.1875 C-366.99129395 900.53136719 -367.48258789 899.87523437 -367.98876953 899.19921875 C-393.93279089 864.39965994 -414.95660509 825.98258258 -430.54052734 785.48339844 C-432.34782437 780.8251662 -434.23800343 776.62895094 -437 772.4375 C-456.24188139 741.92080086 -471.41610073 708.29614961 -482.84375 674.11523438 C-483.49354503 672.20646146 -484.17967681 670.31448222 -484.875 668.421875 C-511.40383721 594.78022634 -515.29052384 512.02474624 -504.5 435.1875 C-504.39860718 434.456521 -504.29721436 433.72554199 -504.19274902 432.97241211 C-498.41099026 391.62569149 -486.16522299 351.78297692 -470.5 313.1875 C-470.08717773 312.16591797 -469.67435547 311.14433594 -469.24902344 310.09179688 C-464.42954272 298.25149412 -458.98057495 286.88854618 -452.85205078 275.67236328 C-451.42487431 273.04943043 -450.02184895 270.41447264 -448.62109375 267.77734375 C-436.1493928 244.42311096 -421.72045401 222.12353258 -405.5 201.1875 C-405.08572754 200.64851074 -404.67145508 200.10952148 -404.24462891 199.55419922 C-394.41630145 186.77846515 -383.97428625 174.59477668 -372.9921875 162.79736328 C-371.37133092 161.04868391 -369.76363873 159.28840691 -368.15625 157.52734375 C-361.10665915 149.8398298 -353.83446436 142.56833465 -346.0703125 135.60498047 C-344.50211522 134.18940935 -342.95185536 132.75658485 -341.40625 131.31640625 C-334.98074699 125.33603109 -328.37072432 119.65432801 -321.5 114.1875 C-320.98775879 113.77564453 -320.47551758 113.36378906 -319.94775391 112.93945312 C-289.73235716 88.65025538 -257.04109261 68.6851739 -222.5 51.1875 C-221.60684082 50.73020508 -220.71368164 50.27291016 -219.79345703 49.80175781 C-178.67730835 28.87072226 -133.8078897 15.60868504 -88.48339844 7.71655273 C-86.61407463 7.38506135 -84.74700428 7.04028779 -82.88378906 6.67602539 C-75.04687971 5.15366786 -67.15342667 4.24929747 -59.22314453 3.38256836 C-56.89933985 3.12766984 -54.57664093 2.86405968 -52.25390625 2.59960938 C-34.82271254 0.64710956 -17.53639836 -0.01522208 0 0 Z " fill="#737574" transform="translate(582.5,74.8125)"/>
<path d="M0 0 C3.16131385 0.61188174 6.32644828 1.186138 9.49755859 1.74462891 C26.63159813 4.80422507 43.095134 9.69079327 59.70263672 14.82519531 C62.14318579 15.57636934 64.58685416 16.31566633 67.03271484 17.04931641 C73.87766257 19.11665236 80.53488377 21.39147058 87.09912109 24.24853516 C89.58613523 25.30646596 92.06701744 26.30387513 94.59130859 27.26416016 C109.97195569 33.15303734 124.69593807 40.3263575 139.42333984 47.66259766 C140.38949219 48.14100098 141.35564453 48.6194043 142.35107422 49.11230469 C163.77386342 59.7807913 184.17997904 72.44273304 203.42333984 86.66259766 C205.01082031 87.82662109 205.01082031 87.82662109 206.63037109 89.01416016 C209.58250123 91.20407583 212.5084674 93.42335789 215.42333984 95.66259766 C215.96522949 96.07832031 216.50711914 96.49404297 217.06542969 96.92236328 C223.6644478 101.99997767 230.15143639 107.19522817 236.48583984 112.60009766 C237.2426001 113.24362183 237.2426001 113.24362183 238.01464844 113.90014648 C248.92440792 123.30399923 259.24664347 133.32115992 269.40966797 143.51855469 C271.3141249 145.4284276 273.22394804 147.33281914 275.13427734 149.23681641 C281.10857632 155.20752736 286.99940197 161.17935634 292.42333984 167.66259766 C293.33523501 168.71933451 294.2479642 169.77535237 295.16162109 170.83056641 C346.97259812 231.60429211 384.69820107 304.91472418 402.74169922 382.7421875 C403.33665124 385.29119041 403.95659879 387.831297 404.59521484 390.36962891 C409.54352414 410.19053606 412.18552502 430.27024883 414.04272461 450.59375 C414.31794921 453.60216329 414.62564866 456.60606071 414.94262695 459.61035156 C416.35592487 473.39849141 416.78104776 487.05717257 416.73583984 500.91259766 C416.73501404 501.99233856 416.73418823 503.07207947 416.7333374 504.18453979 C416.70014008 523.16799233 415.59629458 541.81150985 413.42333984 560.66259766 C413.24112651 562.41233647 413.06110942 564.16230682 412.88427734 565.91259766 C410.43611981 589.41286558 405.11100179 612.76747399 399.17333984 635.60009766 C398.92737061 636.54643066 398.68140137 637.49276367 398.42797852 638.46777344 C397.31592695 642.64669367 396.17847897 646.69697671 394.42333984 650.66259766 C393.26336042 647.22426626 393.60190576 644.95029285 394.46240234 641.45556641 C394.71078857 640.41070068 394.9591748 639.36583496 395.21508789 638.28930664 C395.62754761 636.58689819 395.62754761 636.58689819 396.04833984 634.85009766 C408.41829194 581.22286601 411.40772775 525.2975462 404.42333984 470.66259766 C404.33848328 469.99820679 404.25362671 469.33381592 404.16619873 468.64929199 C392.74980295 380.29216706 356.6583903 292.16895146 297.95068359 224.59228516 C295.46004297 221.70514378 293.06151744 218.75973099 290.67333984 215.78759766 C287.68913068 212.11840098 284.60935937 208.71419645 281.19995117 205.44018555 C279.44996183 203.68923428 277.84546561 201.87410843 276.23974609 199.99072266 C272.33871686 195.50320025 268.20036267 191.29185978 263.98583984 187.10009766 C263.27363281 186.38402344 262.56142578 185.66794922 261.82763672 184.93017578 C257.18975744 180.30072135 252.39401158 175.93011659 247.42333984 171.66259766 C246.23203556 170.61708855 245.04190203 169.57024369 243.85302734 168.52197266 C217.05155744 145.02356652 187.71601158 124.73289363 156.42333984 107.66259766 C155.07900879 106.92662354 155.07900879 106.92662354 153.70751953 106.17578125 C91.83652738 72.52645319 21.50354908 51.90666838 -48.99462891 48.65722656 C-51.5744862 48.53769838 -54.15364362 48.40748412 -56.73291016 48.27587891 C-151.6888427 43.5893756 -248.67292173 66.60707054 -400.79931641 167.51806641 C-402.53664712 169.09767521 -404.26748348 170.68451153 -405.98681641 172.28369141 C-408.02595411 174.15674549 -410.09229968 175.96340575 -412.19384766 177.76416016 C-417.06785382 182.01556387 -421.63408941 186.56950536 -426.19506836 191.15063477 C-427.63691237 192.59784151 -429.08403131 194.03961792 -430.53173828 195.48095703 C-435.76020704 200.70528372 -440.78304483 206.03706343 -445.57666016 211.66259766 C-446.63337004 212.86607731 -447.69194861 214.06791889 -448.75244141 215.26806641 C-455.69286361 223.17661536 -462.24419029 231.25989726 -468.57666016 239.66259766 C-469.94814516 241.4361547 -471.32273668 243.20731776 -472.70166016 244.97509766 C-473.26111328 245.69310547 -473.82056641 246.41111328 -474.39697266 247.15087891 C-474.98091797 247.89917969 -474.98091797 247.89917969 -475.57666016 248.66259766 C-475.57666016 244.53193812 -473.54522891 241.97576907 -471.38916016 238.60009766 C-470.94282227 237.89546387 -470.49648438 237.19083008 -470.03662109 236.46484375 C-455.34090242 213.56510666 -438.11233163 192.23469209 -419.80712891 172.13916016 C-418.59904313 170.79778296 -417.3970505 169.45026651 -416.23120117 168.07202148 C-410.79930133 161.69456559 -404.88221866 155.81689691 -398.95239258 149.90795898 C-397.14305083 148.10397681 -395.33911696 146.29471101 -393.53564453 144.48486328 C-387.71888688 138.66439954 -381.87714054 132.9642542 -375.57666016 127.66259766 C-374.45816548 126.69014076 -373.34095018 125.71621017 -372.22509766 124.74072266 C-342.26791946 98.78899886 -309.49211463 76.40537717 -274.57666016 57.66259766 C-273.33964355 56.99381592 -273.33964355 56.99381592 -272.07763672 56.31152344 C-259.48241707 49.51942406 -246.73752157 43.2807737 -233.57666016 37.66259766 C-232.57957031 37.23479004 -231.58248047 36.80698242 -230.55517578 36.36621094 C-205.13200246 25.53131955 -179.22430482 16.91676787 -152.38232422 10.35595703 C-150.00955696 9.76957877 -147.6473665 9.15813418 -145.28759766 8.52197266 C-126.86688525 3.63563631 -108.04074037 0.67817152 -89.13916016 -1.58740234 C-88.10168137 -1.71175659 -88.10168137 -1.71175659 -87.04324341 -1.83862305 C-57.42555856 -5.35103751 -29.30801247 -5.67341129 0 0 Z " fill="#505351" transform="translate(676.57666015625,83.33740234375)"/>
<path d="M0 0 C1.48945899 3.90400207 0.49463578 7.24255267 -0.484375 11.140625 C-0.65534195 11.84684494 -0.8263089 12.55306488 -1.00245667 13.28068542 C-1.57209389 15.60720627 -2.15897115 17.928826 -2.75 20.25 C-2.95184906 21.05043732 -3.15369812 21.85087463 -3.36166382 22.67556763 C-20.80642104 91.43928417 -54.15680604 156.37118536 -100.453125 210.14990234 C-101.57714105 211.49425108 -102.67256721 212.86266502 -103.75 214.24462891 C-110.42747193 222.72123735 -117.95787102 230.26152473 -125.60107422 237.86181641 C-127.87050018 240.12052144 -130.12903274 242.38972326 -132.38671875 244.66015625 C-139.95739004 252.23773566 -147.56554337 259.38718096 -156 266 C-157.16482954 266.99393861 -158.32222097 267.99672466 -159.46875 269.01171875 C-180.5724616 287.6752603 -204.48058714 303.2133022 -229 317 C-229.87672363 317.49709473 -230.75344727 317.99418945 -231.65673828 318.50634766 C-245.81180194 326.49542577 -260.21294675 333.44225834 -275.17626953 339.78051758 C-277.99861777 340.99940306 -280.78600857 342.27939419 -283.57421875 343.57421875 C-288.78772977 345.95905818 -294.08165713 347.94737134 -299.5 349.8125 C-300.37914062 350.12380859 -301.25828125 350.43511719 -302.1640625 350.75585938 C-308.61535027 353 -308.61535027 353 -312 353 C-312 353.66 -312 354.32 -312 355 C-315.85195213 355.63912356 -319.70690299 356.25827944 -323.5625 356.875 C-324.60986328 357.04902344 -325.65722656 357.22304687 -326.73632812 357.40234375 C-348.57615566 360.86085016 -370.41440005 361.37187749 -392.47704697 361.31785583 C-394.77861444 361.31243257 -397.08017167 361.31005335 -399.38174438 361.3079834 C-421.3672926 361.27715395 -443.17750878 360.93900425 -465 358 C-466.17739746 357.8448291 -467.35479492 357.6896582 -468.56787109 357.52978516 C-476.07509783 356.51327868 -483.54072019 355.32071722 -491 354 C-491.92409668 353.83886719 -492.84819336 353.67773438 -493.80029297 353.51171875 C-541.11542911 345.17544409 -588.81710015 330.40762454 -631.55810547 308.2578125 C-634.42739696 306.77984912 -637.30955277 305.32831293 -640.19140625 303.875 C-665.76048354 290.89860104 -689.86842406 275.9142717 -713 259 C-713.64614258 258.52804199 -714.29228516 258.05608398 -714.95800781 257.56982422 C-723.70370793 251.15758013 -732.1678739 244.517134 -740.36279297 237.41503906 C-742.09030643 235.9219481 -743.82721283 234.4404026 -745.56640625 232.9609375 C-752.4751044 227.07795247 -759.29632461 221.11671764 -766 215 C-761.78068745 215 -759.42293517 217.30682579 -756.125 219.6875 C-727.41994388 239.86299708 -695.86466473 257.00108033 -663.30224609 270.06884766 C-660.980016 271.00808261 -658.67136371 271.97579114 -656.36328125 272.94921875 C-622.60008032 287.03890893 -586.94470218 295.69556271 -551 302 C-550.09830078 302.16338867 -549.19660156 302.32677734 -548.26757812 302.49511719 C-542.2009827 303.57583575 -536.127466 304.35373294 -530 305 C-528.72914551 305.13535156 -527.45829102 305.27070312 -526.14892578 305.41015625 C-482.69867071 309.87364599 -436.31434116 311.1589299 -393 305 C-391.75831055 304.83902832 -390.51662109 304.67805664 -389.23730469 304.51220703 C-334.19592862 297.34098394 -280.36444346 280.45479845 -231.03369141 255.04345703 C-228.92827475 253.96319884 -226.81396463 252.90170609 -224.69921875 251.83984375 C-193.88424518 236.18392979 -165.41790284 216.22101615 -139 194 C-138.43651855 193.52675293 -137.87303711 193.05350586 -137.29248047 192.56591797 C-128.14472487 184.87024457 -128.14472487 184.87024457 -119.55859375 176.5625 C-117.84067829 174.84027899 -116.03584357 173.26865727 -114.1875 171.6875 C-107.24878899 165.69008699 -100.8482273 159.14341604 -94.89453125 152.171875 C-93.02633249 150.03018735 -91.09777435 147.95361651 -89.15478516 145.87988281 C-83.22428283 139.52680386 -77.82080271 132.87079629 -72.53027344 125.98046875 C-70.86018792 123.81905623 -69.17001562 121.67439781 -67.4765625 119.53125 C-60.93779509 111.23768915 -54.69255645 102.90518732 -49 94 C-48.16710807 92.74103233 -47.3323481 91.48329923 -46.49609375 90.2265625 C-28.05489094 62.37162182 -10.60116949 31.80350847 0 0 Z " fill="#5E615F" transform="translate(1052,786)"/>
<path d="M0 0 C3.89379207 3.50259333 6.44780077 7.56921275 9.25 11.9375 C18.70852033 26.38781058 29.2536575 40.10984614 40.5625 53.16015625 C42.92380986 55.9112336 45.18272988 58.72390547 47.4375 61.5625 C51.25250994 66.26105802 55.38338939 70.50321861 59.70117188 74.73071289 C62.41528111 77.39239441 65.00239129 80.08149503 67.4375 83 C71.9277546 88.26218699 77.15221375 92.78659111 82.26953125 97.42236328 C83.97340292 98.97575193 85.66105932 100.54480851 87.34375 102.12109375 C94.01639001 108.36611464 100.82969367 114.32391177 108 120 C108.55864746 120.44230957 109.11729492 120.88461914 109.69287109 121.34033203 C116.95212996 127.1093092 116.95212996 127.1093092 124.328125 132.7265625 C130.30058187 137.1717117 135.59637395 142.26411056 140.98901367 147.38085938 C145.61219639 151.75017572 150.34393062 155.88556036 155.32421875 159.84765625 C157.73752174 161.78886785 160.08356557 163.79158839 162.42138672 165.82250977 C171.21236725 173.42386642 180.56806999 180.22183049 190 187 C190.81952148 187.59248535 191.63904297 188.1849707 192.48339844 188.79541016 C203.81889427 196.96974584 215.38903287 204.52607642 227.47900391 211.53662109 C229.99702911 212.99827547 232.50451959 214.47690103 235.01171875 215.95703125 C270.67810469 236.85533106 309.65779421 254.4247029 349.60400391 265.34472656 C351.36294375 265.82577349 353.12019829 266.31299379 354.87646484 266.80371094 C387.88825476 276.02706417 420.82643561 282.19326178 455 285 C455.99296585 285.08406601 456.9859317 285.16813202 458.00898743 285.25474548 C466.89806628 285.95722242 475.73859586 286.16325735 484.65234375 286.16796875 C486.12423227 286.17119849 487.5961205 286.1745637 489.06800842 286.17805481 C492.13624817 286.18399214 495.20446 286.18590052 498.27270508 286.18530273 C501.36651499 286.18522182 504.46017574 286.19211763 507.55395508 286.20581055 C539.27811757 286.38690893 539.27811757 286.38690893 570.6953125 282.3671875 C573.1646537 281.97376704 575.50367453 281.93781396 578 282 C574.11933624 284.25428479 569.87205919 285.2117768 565.5625 286.3125 C564.72050049 286.5290625 563.87850098 286.745625 563.01098633 286.96875 C561.22907571 287.42422406 559.44642232 287.87680083 557.66308594 288.32666016 C555.95411262 288.7587603 554.24630899 289.19552881 552.54003906 289.63818359 C528.47582652 295.87144919 503.72856493 299.60530792 479 302 C478.04488525 302.09498779 477.08977051 302.18997559 476.10571289 302.2878418 C463.5803675 303.35956528 450.99969975 303.28712119 438.4375 303.3125 C436.5780928 303.31642761 436.5780928 303.31642761 434.68112183 303.32043457 C414.82270115 303.32491328 395.38978745 302.38487168 375.73730469 299.53808594 C372.36222039 299.05215141 368.98519007 298.61652429 365.6015625 298.1953125 C289.93936026 288.12638615 215.10239206 254.33548288 155 208 C154.45666016 207.58282715 153.91332031 207.1656543 153.35351562 206.73583984 C146.7321669 201.64147833 140.22704575 196.42722343 133.875 191 C133.36211426 190.56260498 132.84922852 190.12520996 132.32080078 189.67456055 C122.4905111 181.19278107 113.08562561 172.27233748 103.90795898 163.09326172 C102.30795481 161.49546107 100.70006385 159.90588449 99.09179688 158.31640625 C93.33636525 152.59144589 87.96308737 146.76594642 82.92041016 140.39404297 C81.04512033 138.05624841 79.08610017 135.83477996 77.0625 133.625 C72.0338249 128.01228586 67.50082647 122.03651284 63 116 C62.50870605 115.34386719 62.01741211 114.68773437 61.51123047 114.01171875 C0 31.50470674 0 31.50470674 0 0 Z " fill="#949594" transform="translate(153,860)"/>
<path d="M0 0 C0.8254834 0.19029785 1.6509668 0.3805957 2.50146484 0.57666016 C78.3332249 18.16938646 151.92865254 53.86230883 213 102 C214.28829915 102.99708083 215.57739839 103.99312853 216.8671875 104.98828125 C218.16166147 105.99192556 219.45593652 106.99582647 220.75 108 C221.35956543 108.46946045 221.96913086 108.9389209 222.59716797 109.42260742 C226.88598923 112.77197847 226.88598923 112.77197847 228 115 C223.08619121 113.33626947 219.05968058 110.56388545 214.75 107.75 C187.24227859 90.11753708 158.26320053 76.13484878 128 64 C127.10539062 63.63817627 126.21078125 63.27635254 125.2890625 62.90356445 C110.60249095 56.98030671 95.81250087 51.64693991 80.48095703 47.66259766 C77.77675674 46.94037766 75.09045431 46.16663917 72.40234375 45.38671875 C46.53697365 37.9880102 19.74278401 32.93454111 -7 30 C-7.87462891 29.90380371 -8.74925781 29.80760742 -9.65039062 29.70849609 C-28.42164055 27.69535736 -47.14335696 26.90566355 -66.01107788 26.61129761 C-93.65846952 26.16916718 -93.65846952 26.16916718 -105.6875 24.9375 C-133.42837071 22.20469103 -162.31094941 23.11934888 -190 26 C-190.6428595 26.06552063 -191.28571899 26.13104126 -191.94805908 26.19854736 C-209.51739988 27.99438871 -226.83752399 30.33347083 -244.06347656 34.32470703 C-247.13879394 35.03191753 -250.22054766 35.70347594 -253.3046875 36.37109375 C-281.02673416 42.45422942 -308.55031733 50.53188975 -334.48852539 62.15551758 C-337 63 -337 63 -340 62 C-334.07832624 58.78644913 -328.154532 55.57692476 -322.2265625 52.375 C-318.83434463 50.54136872 -315.44753854 48.70166422 -312.0859375 46.8125 C-234.11383495 3.63940264 -134.2876631 -22.49571299 0 0 Z " fill="#A8A9A9" transform="translate(723,52)"/>
<path d="M0 0 C4.51650548 3.61320438 8.45545148 7.50910886 12.3125 11.8125 C16.40934277 16.36493513 20.6577903 20.55298406 25.2734375 24.58984375 C27.93946708 26.94649167 30.5361719 29.36193472 33.12768555 31.79956055 C39.53740312 37.82191086 46.09166241 43.54903774 53 49 C53.55719727 49.44085937 54.11439453 49.88171875 54.68847656 50.3359375 C61.94984231 56.10722027 61.94984231 56.10722027 69.328125 61.7265625 C75.30058187 66.1717117 80.59637395 71.26411056 85.98901367 76.38085938 C90.61219639 80.75017572 95.34393062 84.88556036 100.32421875 88.84765625 C102.73752174 90.78886785 105.08356557 92.79158839 107.42138672 94.82250977 C116.21236725 102.42386642 125.56806999 109.22183049 135 116 C135.81952148 116.59248535 136.63904297 117.1849707 137.48339844 117.79541016 C148.81889427 125.96974584 160.38903287 133.52607642 172.47900391 140.53662109 C174.99702911 141.99827547 177.50451959 143.47690103 180.01171875 144.95703125 C215.67810469 165.85533106 254.65779421 183.4247029 294.60400391 194.34472656 C296.36294375 194.82577349 298.12019829 195.31299379 299.87646484 195.80371094 C332.88825476 205.02706417 365.82643561 211.19326178 400 214 C400.99296585 214.08406601 401.9859317 214.16813202 403.00898743 214.25474548 C411.89806628 214.95722242 420.73859586 215.16325735 429.65234375 215.16796875 C431.12423227 215.17119849 432.5961205 215.1745637 434.06800842 215.17805481 C437.13624817 215.18399214 440.20446 215.18590052 443.27270508 215.18530273 C446.36651499 215.18522182 449.46017574 215.19211763 452.55395508 215.20581055 C484.27811757 215.38690893 484.27811757 215.38690893 515.6953125 211.3671875 C518.1646537 210.97376704 520.50367453 210.93781396 523 211 C519.11933624 213.25428479 514.87205919 214.2117768 510.5625 215.3125 C509.72050049 215.5290625 508.87850098 215.745625 508.01098633 215.96875 C506.22907571 216.42422406 504.44642232 216.87680083 502.66308594 217.32666016 C500.95411262 217.7587603 499.24630899 218.19552881 497.54003906 218.63818359 C446.47267091 231.86597855 389.72366275 238.65607859 338 226 C335.46152427 225.42319281 332.92245197 224.84900527 330.3828125 224.27734375 C286.67590336 214.16536772 244.99261106 198.16626241 205 178 C203.95457031 177.47519043 202.90914062 176.95038086 201.83203125 176.40966797 C167.58917193 159.14026181 135.27068454 137.94836354 105.75732422 113.453125 C103.23066633 111.36384079 100.67532093 109.31028732 98.125 107.25 C93.82898516 103.73332218 89.67936063 100.08165718 85.58203125 96.3359375 C83.51850455 94.46908581 81.43064588 92.64663104 79.32324219 90.83032227 C75.13484142 87.16747966 71.17335342 83.31823676 67.24609375 79.37890625 C66.54154556 78.67531479 65.83699738 77.97172333 65.11109924 77.24681091 C63.63346633 75.76985352 62.15707543 74.29165258 60.68188477 72.81225586 C58.44333519 70.56834915 56.19949527 68.32983296 53.95507812 66.09179688 C52.51009596 64.64615382 51.06542408 63.20020055 49.62109375 61.75390625 C48.96048447 61.0953212 48.29987518 60.43673615 47.61924744 59.75819397 C43.21523353 55.33229546 39.06827762 50.73482886 35 46 C34.05066246 44.91693042 33.10035062 43.83471285 32.1484375 42.75390625 C24.91215392 34.4560431 18.17826932 25.84247036 11.55615234 17.04980469 C10.04026732 15.05304117 8.50392518 13.0743689 6.95703125 11.1015625 C6.48797363 10.50158447 6.01891602 9.90160645 5.53564453 9.28344727 C4.26974005 7.66748191 3.00022838 6.05434416 1.73046875 4.44140625 C0 2 0 2 0 0 Z " fill="#878987" transform="translate(208,931)"/>
<path d="M0 0 C0.495 0.99 0.495 0.99 1 2 C0.23071289 3.86914062 0.23071289 3.86914062 -1.02734375 6.15625 C-1.48568604 7.00421143 -1.94402832 7.85217285 -2.41625977 8.72583008 C-2.91826904 9.64130615 -3.42027832 10.55678223 -3.9375 11.5 C-8.69218088 20.37947781 -13.03562516 29.31546144 -16.97119141 38.58447266 C-18.06390371 41.15003875 -19.17863744 43.70547515 -20.29296875 46.26171875 C-32.57579304 74.74363015 -42.01094355 103.79943966 -49 134 C-49.29100586 135.25087402 -49.58201172 136.50174805 -49.88183594 137.79052734 C-56.11633049 165.06735892 -60.29267464 193.06427225 -62 221 C-62.05639648 221.91539551 -62.11279297 222.83079102 -62.17089844 223.77392578 C-63.31778943 243.39661995 -63.38335295 263.05041562 -62.5625 282.6875 C-62.52334473 283.62529297 -62.48418945 284.56308594 -62.44384766 285.52929688 C-62.2105436 290.41706157 -61.69608698 295.15375807 -61 300 C-60.77359961 302.8274229 -60.59013136 305.65640068 -60.4050293 308.48681641 C-58.85874594 331.68280219 -55.05291269 354.32937754 -50 377 C-49.6793286 378.48820396 -49.35898815 379.97647929 -49.0390625 381.46484375 C-42.17060276 412.70585077 -31.37186383 443.96103233 -18 473 C-17.49243164 474.10762695 -16.98486328 475.21525391 -16.46191406 476.35644531 C-15.09326799 479.33905303 -13.72023362 482.31956797 -12.34326172 485.29833984 C-11.77972427 486.51906573 -11.21755567 487.74042444 -10.65673828 488.96240234 C-7.64655589 495.51973749 -4.62981792 501.96533386 -0.86523438 508.12841797 C0 510 0 510 0 514 C0.66 514 1.32 514 2 514 C2.50789063 514.90621094 3.01578125 515.81242188 3.5390625 516.74609375 C7.01319321 522.90697595 10.52765967 528.95134875 14.54321289 534.78051758 C15.91982784 536.87785401 17.12229689 538.99578433 18.3046875 541.20703125 C20.92063653 545.9573381 23.85279982 550.41842624 26.9375 554.875 C27.78066772 556.09775635 27.78066772 556.09775635 28.64086914 557.34521484 C39.11355562 572.44523271 50.14802592 586.95829287 62 601 C62.99492654 602.19129362 63.98972358 603.38269541 64.984375 604.57421875 C71.25855653 612.03734818 77.83392498 619.17957743 84.56982422 626.22851562 C87.88559395 629.70524505 91.07831228 633.17646479 94 637 C90.10015342 635.30689588 86.92639414 632.75217222 83.625 630.125 C83.01285645 629.6403125 82.40071289 629.155625 81.77001953 628.65625 C71.37560462 620.36834442 61.3958129 611.613707 51.67041016 602.55273438 C49.79001728 600.80480998 47.90066596 599.06679976 46.01171875 597.328125 C39.49350706 591.303821 33.09720349 585.2938891 27.26953125 578.5859375 C24.96867762 575.96431082 22.59993378 573.4220352 20.20996094 570.88208008 C14.1828103 564.46855156 8.44746562 557.91880682 3 551 C2.48856445 550.35579102 1.97712891 549.71158203 1.45019531 549.04785156 C-10.06559366 534.52852155 -20.95887875 519.58188454 -31 504 C-31.47783936 503.27079346 -31.95567871 502.54158691 -32.44799805 501.7902832 C-34.23140332 498.58396908 -35.36664678 495.32472708 -36.453125 491.83984375 C-36.67416901 491.14620728 -36.89521301 490.4525708 -37.12295532 489.73791504 C-37.84046542 487.4736813 -38.54644679 485.20610681 -39.25 482.9375 C-39.49333069 482.15778839 -39.73666138 481.37807678 -39.98736572 480.57473755 C-50.63512397 446.3665309 -57.36035858 411.76692066 -61.4362793 376.19213867 C-62.55058378 366.69671049 -64.15589444 357.36365136 -65.97186279 347.97897339 C-68.97762297 332.38026396 -71.56128645 316.8329154 -73 301 C-73.08846191 300.02844971 -73.17692383 299.05689941 -73.26806641 298.0559082 C-80.24969069 214.91758643 -66.16756463 129.38319557 -30 54 C-29.53932129 53.03094727 -29.07864258 52.06189453 -28.60400391 51.06347656 C-8.03131563 8.03131563 -8.03131563 8.03131563 0 0 Z " fill="#5D5F5E" transform="translate(184,356)"/>
<path d="M0 0 C1.76737394 3.39326699 2.75602734 6.59082417 3.6875 10.3125 C15.43411469 55.46882943 34.19261169 98.73678468 59.00708008 138.25195312 C60 140 60 140 61 143 C61.66 143 62.32 143 63 143 C63.50789063 143.90621094 64.01578125 144.81242188 64.5390625 145.74609375 C68.01319321 151.90697595 71.52765967 157.95134875 75.54321289 163.78051758 C76.91982784 165.87785401 78.12229689 167.99578433 79.3046875 170.20703125 C81.92063653 174.9573381 84.85279982 179.41842624 87.9375 183.875 C88.49961182 184.6901709 89.06172363 185.5053418 89.64086914 186.34521484 C100.11355562 201.44523271 111.14802592 215.95829287 123 230 C123.99492654 231.19129362 124.98972358 232.38269541 125.984375 233.57421875 C132.25855653 241.03734818 138.83392498 248.17957743 145.56982422 255.22851562 C148.88559395 258.70524505 152.07831228 262.17646479 155 266 C151.10015342 264.30689588 147.92639414 261.75217222 144.625 259.125 C144.01285645 258.6403125 143.40071289 258.155625 142.77001953 257.65625 C132.37560462 249.36834442 122.3958129 240.613707 112.67041016 231.55273438 C110.79001728 229.80480998 108.90066596 228.06679976 107.01171875 226.328125 C100.49350706 220.303821 94.09720349 214.2938891 88.26953125 207.5859375 C85.96867762 204.96431082 83.59993378 202.4220352 81.20996094 199.88208008 C75.1828103 193.46855156 69.44746562 186.91880682 64 180 C63.48856445 179.35579102 62.97712891 178.71158203 62.45019531 178.04785156 C50.93440634 163.52852155 40.04112125 148.58188454 30 133 C29.52216064 132.27079346 29.04432129 131.54158691 28.55200195 130.7902832 C26.76859668 127.58396908 25.63335322 124.32472708 24.546875 120.83984375 C24.32583099 120.14620728 24.10478699 119.4525708 23.87704468 118.73791504 C23.15953458 116.4736813 22.45355321 114.20610681 21.75 111.9375 C21.50666931 111.15778839 21.26333862 110.37807678 21.01263428 109.57473755 C12.17430245 81.17970128 5.68994572 52.41199049 1.6875 22.9375 C1.42996948 21.05538818 1.42996948 21.05538818 1.16723633 19.13525391 C0.33206187 12.69696063 -0.18866703 6.49154335 0 0 Z " fill="#5F6260" transform="translate(123,727)"/>
<path d="M0 0 C3.78967692 3.63972567 7.05202327 7.46187849 10.25 11.625 C11.22321699 12.87557728 12.19718439 14.12557091 13.171875 15.375 C13.89020508 16.29732422 13.89020508 16.29732422 14.62304688 17.23828125 C20.52063512 24.78384805 26.70296304 31.97690477 33.2265625 38.98046875 C35.25808793 41.16603655 37.21082283 43.40614229 39.15234375 45.671875 C43.3854741 50.52857447 47.92467474 55.07511815 52.48803711 59.6184082 C53.93524385 61.06025221 55.37702026 62.50737116 56.81835938 63.95507812 C62.04228754 69.18309155 67.37026838 74.21169561 73 79 C74.08328462 79.94909216 75.16536596 80.89955992 76.24609375 81.8515625 C85.18961245 89.65279296 94.48207031 96.91492332 104 104 C104.71140137 104.53238281 105.42280273 105.06476563 106.15576172 105.61328125 C126.06325753 120.4592432 147.12467701 133.2703545 169 145 C169.96599121 145.51804199 170.93198242 146.03608398 171.92724609 146.56982422 C209.90546529 166.71400489 251.14649172 180.55699842 293 190 C293.94681641 190.21591797 294.89363281 190.43183594 295.86914062 190.65429688 C310.76045216 193.99724436 325.88516012 195.96241214 341 198 C341 198.33 341 198.66 341 199 C274.41195275 196.79308186 208.75348625 174.58669655 149.73626709 144.87365723 C148.17023082 144.08565697 146.60208686 143.30184881 145.03369141 142.51855469 C125.71252051 132.83083784 106.83654669 121.3954986 89.671875 108.23828125 C87.54180333 106.66063471 85.27693515 105.35385333 83 104 C78.98924178 101.15025074 75.9928838 97.789286 72.8203125 94.07421875 C71.11405175 92.12996026 69.34703515 90.30976314 67.5 88.5 C64.48245484 85.52929035 61.69410772 82.42026554 58.93359375 79.2109375 C56.75404019 76.7187611 54.5022672 74.30161332 52.25 71.875 C47.50124713 66.6671532 43.14766808 61.22300397 38.83984375 55.6484375 C36.96903201 53.22936232 35.06771452 50.84147526 33.12890625 48.4765625 C24.85452905 38.36711968 17.36442296 27.78579301 10 17 C9.47470703 16.23397461 8.94941406 15.46794922 8.40820312 14.67871094 C6.97352136 12.58208141 5.54698176 10.48025824 4.125 8.375 C3.70202637 7.75367188 3.27905273 7.13234375 2.84326172 6.4921875 C0 2.23515592 0 2.23515592 0 0 Z " fill="#474A48" transform="translate(200,894)"/>
<path d="M0 0 C-8.63139884 4.7266869 -17.69774276 8.01263831 -26.9375 11.3125 C-28.12527039 11.73911423 -28.12527039 11.73911423 -29.33703613 12.17434692 C-43.74106008 17.33712167 -58.2281272 21.98988758 -73 26 C-73.98226562 26.2686084 -74.96453125 26.5372168 -75.9765625 26.81396484 C-126.93304023 40.58070658 -177.63423077 46.8117553 -230 39 C-230 38.67 -230 38.34 -230 38 C-229.07703125 37.98541748 -228.1540625 37.97083496 -227.203125 37.95581055 C-178.76157172 37.10916038 -130.46144278 32.04857327 -83.9375 17.875 C-77.91017268 16.11381355 -71.92461193 15.12133476 -65.72802734 14.20996094 C-45.07112791 11.11978336 -23.74369875 6.88505535 -4.1171875 -0.3984375 C-2 -1 -2 -1 0 0 Z " fill="#A8A9A9" transform="translate(812,1125)"/>
<path d="M0 0 C0.33 0 0.66 0 1 0 C1.83742399 5.15561897 2.25420781 10.27617411 2.5949707 15.48681641 C4.14125406 38.68280219 7.94708731 61.32937754 13 84 C13.3206714 85.48820396 13.64101185 86.97647929 13.9609375 88.46484375 C20.82939724 119.70585077 31.62813617 150.96103233 45 180 C45.50756836 181.10762695 46.01513672 182.21525391 46.53808594 183.35644531 C47.90673201 186.33905303 49.27976638 189.31956797 50.65673828 192.29833984 C51.22027573 193.51906573 51.78244433 194.74042444 52.34326172 195.96240234 C55.38420096 202.58673773 58.44671201 209.08784131 62.23242188 215.32373047 C62.48572266 215.87689941 62.73902344 216.43006836 63 217 C62.67 217.66 62.34 218.32 62 219 C36.24448242 179.46557121 17.1596529 135.56918467 5 90 C4.71382813 89.00484375 4.42765625 88.0096875 4.1328125 86.984375 C0.69253059 74.46830175 0.84516018 61.53280142 0.68359375 48.6328125 C0.66294835 47.21792094 0.64195038 45.80303449 0.62062073 44.38815308 C0.56618113 40.71572076 0.5164373 37.04324032 0.46777344 33.37072754 C0.41697706 29.60257837 0.36159873 25.83449661 0.30664062 22.06640625 C0.20001894 14.71099503 0.09837292 7.35552666 0 0 Z " fill="#4E514F" transform="translate(121,649)"/>
<path d="M0 0 C-12.68524767 5.72079797 -27.37044819 4.12229907 -41 4 C-41 3.67 -41 3.34 -41 3 C-40.0620459 2.91435791 -39.1240918 2.82871582 -38.15771484 2.74047852 C-34.65754761 2.41982111 -31.15757575 2.09717055 -27.65771484 1.77319336 C-26.14672004 1.63372935 -24.63565296 1.49504601 -23.12451172 1.35717773 C-20.94478923 1.15817209 -18.76534737 0.95630348 -16.5859375 0.75390625 C-15.2767334 0.63345947 -13.9675293 0.5130127 -12.61865234 0.38891602 C-9.04248563 0.05109185 -9.04248563 0.05109185 -5.71337891 -0.60961914 C-3 -1 -3 -1 0 0 Z " fill="#323431" transform="translate(659,1090)"/>
</svg>
